HIERARCHY
ROOT Hips
{
	OFFSET	0.00	0.00	0.00
	CHANNELS 6 Xposition Yposition Zposition Zrotation Xrotation Yrotation
	JOINT LeftUpLeg
	{
		OFFSET	 0.126116	-0.014019	-0.065224
		CHANNELS 3 Zrotation Xrotation Yrotation
		JOINT LeftLeg
		{
			OFFSET	 0.000000	 0.000000	 0.569914
			CHANNELS 3 Zrotation Xrotation Yrotation
			JOINT LeftFoot
			{
				OFFSET	 0.000000	 0.000000	 0.544423
				CHANNELS 3 Zrotation Xrotation Yrotation
				JOINT LeftToeBase
				{
					OFFSET	 0.000000	 0.000000	 0.207117
					CHANNELS 3 Zrotation Xrotation Yrotation
					End Site
					{
						OFFSET	 0.000000	 0.000000	 0.207117
					}
				}
			}
		}
	}
	JOINT RightUpLeg
	{
		OFFSET	-0.124023	-0.008373	-0.065224
		CHANNELS 3 Zrotation Xrotation Yrotation
		JOINT RightLeg
		{
			OFFSET	 0.000000	 0.000000	 0.570047
			CHANNELS 3 Zrotation Xrotation Yrotation
			JOINT RightFoot
			{
				OFFSET	 0.000000	 0.000000	 0.544354
				CHANNELS 3 Zrotation Xrotation Yrotation
				JOINT RightToeBase
				{
					OFFSET	 0.000000	 0.000000	 0.207540
					CHANNELS 3 Zrotation Xrotation Yrotation
					End Site
					{
						OFFSET	 0.000000	 0.000000	 0.207540
					}
				}
			}
		}
	}
	JOINT Spine
	{
		OFFSET	 0.000184	-0.007763	 0.117403
		CHANNELS 3 Zrotation Xrotation Yrotation
		JOINT Spine1
		{
			OFFSET	 0.000000	 0.000000	 0.137269
			CHANNELS 3 Zrotation Xrotation Yrotation
			JOINT Spine2
			{
				OFFSET	 0.000000	 0.000000	 0.156879
				CHANNELS 3 Zrotation Xrotation Yrotation
				JOINT LeftShoulder
				{
					OFFSET	 0.080501	-0.002496	 0.160144
					CHANNELS 3 Zrotation Xrotation Yrotation
					JOINT LeftArm
					{
						OFFSET	 0.000000	 0.000000	 0.164363
						CHANNELS 3 Zrotation Xrotation Yrotation
						JOINT LeftForeArm
						{
							OFFSET	 0.000000	 0.000000	 0.364576
							CHANNELS 3 Zrotation Xrotation Yrotation
							JOINT LeftHand
							{
								OFFSET	 0.000000	 0.000000	 0.360812
								CHANNELS 3 Zrotation Xrotation Yrotation
								JOINT LeftHandIndex1
								{
									OFFSET	 0.000000	 0.000000	 0.086006
									CHANNELS 3 Zrotation Xrotation Yrotation
									JOINT LeftHandIndex2
									{
										OFFSET	 0.000000	 0.000000	 0.047236
										CHANNELS 3 Zrotation Xrotation Yrotation
										JOINT LeftHandIndex3
										{
											OFFSET	-0.004284	-0.000551	 0.038166
											CHANNELS 3 Zrotation Xrotation Yrotation
											End Site
											{
												OFFSET	-0.004284	-0.000551	 0.038166
											}
										}
									}
								}
							}
						}
					}
				}
				JOINT Neck
				{
					OFFSET	 0.000000	 0.000000	 0.176489
					CHANNELS 3 Zrotation Xrotation Yrotation
					JOINT Head
					{
						OFFSET	 0.000000	-0.001747	 0.077940
						CHANNELS 3 Zrotation Xrotation Yrotation
						End Site
						{
							OFFSET	 0.000000	-0.001747	 0.077940
						}
					}
				}
				JOINT RightShoulder
				{
					OFFSET	-0.080363	 0.000306	 0.159706
					CHANNELS 3 Zrotation Xrotation Yrotation
					JOINT RightArm
					{
						OFFSET	 0.000000	 0.000000	 0.164196
						CHANNELS 3 Zrotation Xrotation Yrotation
						JOINT RightForeArm
						{
							OFFSET	 0.000000	 0.000000	 0.365611
							CHANNELS 3 Zrotation Xrotation Yrotation
							JOINT RightHand
							{
								OFFSET	 0.000000	 0.000000	 0.360648
								CHANNELS 3 Zrotation Xrotation Yrotation
								JOINT RightHandIndex1
								{
									OFFSET	 0.000000	 0.000000	 0.069977
									CHANNELS 3 Zrotation Xrotation Yrotation
									JOINT RightHandIndex2
									{
										OFFSET	 0.000000	 0.000000	 0.052305
										CHANNELS 3 Zrotation Xrotation Yrotation
										JOINT RightHandIndex3
										{
											OFFSET	 0.009002	-0.000782	 0.042196
											CHANNELS 3 Zrotation Xrotation Yrotation
											End Site
											{
												OFFSET	 0.009002	-0.000782	 0.042196
											}
										}
									}
								}
							}
						}
					}
				}
			}
		}
	}
}
MOTION
Frames:    12
Frame Time: 0.03333334
-4.914045	-23.464200	 0.999475	-25.716380	 9.516379	 3.101621	 5.640608	-20.728620	 175.452100	-4.196935	-36.251170	-0.942755	-1.147774	 83.497870	-0.449714	-2.333848	 36.441660	-0.184044	-2.051484	-22.717510	-178.934200	-2.001725	-40.361100	-0.994431	-1.494579	 87.073300	 0.678627	 2.393963	 25.986910	-0.051162	 0.432331	 5.210837	-1.552174	 0.790566	 3.811217	-2.062295	 0.586968	 1.507952	 0.031117	-101.590600	 88.594580	-167.474300	 54.838940	 68.111150	-64.814490	-4.949048	-4.331763	-17.968700	 5.340741	-26.787430	-5.945793	-1.778567	-11.040000	 7.698519	-5.213516	-0.193813	 3.566525	-1.378229	 35.397820	-2.634230	 0.683271	 1.263833	 0.595408	 0.450948	 3.033809	 0.264078	 96.567400	 87.887150	 170.277700	-50.408130	 75.821780	 63.783860	-1.988959	-12.784580	 23.300580	-21.433180	-27.466440	 10.777520	-7.435605	-4.171585	-37.157520	 5.070815	-0.697434	-9.399699	-2.350882	 35.473990	 5.254307
-4.914370	-23.462440	 1.004780	-25.734310	 9.239832	 3.041801	 5.523360	-20.393790	 175.405300	-4.325589	-36.454140	-1.100489	-1.241673	 83.602600	-0.561265	-2.330462	 36.820290	-0.193454	-1.827820	-22.172190	-178.959400	-1.983408	-39.987380	-0.856060	-1.522371	 86.624260	 0.846752	 2.394463	 25.833110	-0.054388	 0.399589	 5.343056	-1.552900	 0.805504	 4.037085	-2.058196	 0.678295	 1.687335	 0.034898	-101.316700	 88.600170	-167.835100	 54.013600	 68.244740	-63.788570	-4.787954	-4.282435	-17.284200	 5.579916	-26.839060	-5.940067	-2.493062	-11.441190	 6.002218	-5.213516	-0.193813	 3.566525	-1.378229	 35.397820	-2.634230	 0.761400	 1.421690	 0.678949	 0.558853	 3.212236	 0.365300	 96.689060	 87.917370	 170.155600	-51.483510	 75.670120	 64.776940	-2.306536	-12.726930	 23.137730	-21.467550	-27.502270	 10.779040	-7.385422	-4.245033	-36.973160	 5.070815	-0.697434	-9.399699	-2.350882	 35.473990	 5.254307
-4.918275	-23.465400	 1.004222	-25.416350	 8.975914	 2.892109	 5.373133	-20.043260	 175.368700	-4.260045	-36.494810	-1.151955	-1.323962	 83.764760	-0.553364	-2.326803	 37.218340	-0.203420	-1.720841	-20.839120	-178.979900	-1.657965	-38.375270	-0.606340	-1.334290	 86.412320	 0.963468	 2.394348	 25.870800	-0.053601	 0.239941	 5.249960	-1.528348	 0.704546	 4.360724	-2.050051	 0.729452	 2.037731	 0.035303	-100.746800	 88.615490	-168.590700	 53.235960	 68.571410	-62.799390	-4.677324	-4.243474	-16.487050	 5.943776	-26.936930	-5.931667	-3.491271	-11.835610	 3.671026	-5.213516	-0.193813	 3.566525	-1.378229	 35.397820	-2.634230	 0.758929	 1.609778	 0.785499	 0.684711	 3.695554	 0.321974	 96.957130	 87.975710	 169.877400	-52.351340	 75.658010	 65.309170	-2.582277	-12.671820	 22.987780	-21.486990	-27.575780	 10.784670	-7.291023	-4.223528	-36.747330	 5.070815	-0.697434	-9.399699	-2.350882	 35.473990	 5.254307
-4.922696	-23.468120	 1.004080	-25.000230	 8.877314	 2.758090	 5.178139	-19.717860	 175.329400	-4.106771	-36.374820	-1.166174	-1.390770	 83.791420	-0.517850	-2.323691	 37.546540	-0.211715	-1.906810	-19.518770	-179.079300	-1.163789	-36.581050	-0.441563	-1.403483	 86.504970	 1.287917	 2.390616	 26.930730	-0.031241	 0.071300	 5.048956	-1.565841	 0.585076	 4.643950	-2.027491	 0.747610	 2.405476	 0.033787	-99.934170	 88.585290	-169.566900	 52.751350	 68.968240	-62.259390	-4.697504	-4.220284	-15.838840	 6.290420	-27.056850	-5.928131	-3.327693	-11.939480	 4.047821	-5.213516	-0.193813	 3.566525	-1.378229	 35.397820	-2.634230	 0.727445	 1.787939	 0.931067	 0.778986	 4.227294	 0.194230	 97.422100	 88.074510	 169.405600	-52.834840	 75.742420	 65.332990	-2.775610	-12.619880	 22.865850	-21.478710	-27.678620	 10.794550	-7.189734	-4.127904	-36.558970	 5.070815	-0.697434	-9.399699	-2.350882	 35.473990	 5.254307
-4.926956	-23.469680	 1.004261	-24.862320	 8.847219	 2.991639	 4.973351	-19.404770	 174.932900	-4.051129	-36.092080	-1.256382	-1.458750	 83.601350	-0.594012	-2.322197	 37.701890	-0.215657	-2.219610	-18.771440	-179.556200	-1.103096	-35.305180	-0.626676	-1.631942	 86.395810	 1.276896	 2.394407	 25.850420	-0.054022	 0.046476	 4.912104	-2.000612	 0.615529	 4.832135	-2.085673	 0.784233	 2.684139	 0.033536	-98.941270	 88.448590	-170.610800	 52.502190	 69.535480	-62.297160	-4.942921	-4.260976	-15.424870	 6.717140	-27.216740	-5.926229	-3.248735	-11.986160	 4.229290	-5.213516	-0.193813	 3.566525	-1.378229	 35.397820	-2.634230	 0.782983	 1.973340	 1.088395	 0.807333	 4.581453	 0.265039	 98.217250	 88.246540	 168.647500	-53.218510	 75.827340	 65.316860	-2.909200	-12.557520	 22.750650	-21.433400	-27.824090	 10.808800	-7.097724	-3.970595	-36.440070	 5.070815	-0.697434	-9.399699	-2.350882	 35.473990	 5.254307
-4.930361	-23.470920	 1.004638	-25.345760	 8.887498	 3.309516	 4.905448	-19.116880	 174.721900	-4.248024	-35.658400	-1.399409	-1.503451	 83.322410	-0.786901	-2.322843	 37.634940	-0.213958	-2.426671	-18.415990	-179.863800	-1.561128	-34.667530	-1.025863	-2.161123	 86.097410	 1.220314	 2.397668	 24.781940	-0.076289	 0.252259	 4.706643	-2.344888	 0.844391	 4.911318	-2.159153	 0.860687	 2.840049	 0.035638	-98.755700	 88.371650	-170.728700	 52.210910	 70.211770	-62.088740	-5.606644	-4.292627	-15.508620	 6.745478	-27.401690	-5.936746	-3.622495	-12.465110	 3.362575	-5.213516	-0.193813	 3.566525	-1.378229	 35.397820	-2.634230	 0.942798	 2.212813	 1.140357	 0.779285	 4.647031	 0.283373	 98.306940	 88.327770	 168.686000	-53.299490	 75.854770	 65.165020	-3.062120	-12.516730	 22.621020	-21.438930	-28.011710	 10.825650	-7.025942	-3.799257	-36.383450	 5.070815	-0.697434	-9.399699	-2.350882	 35.473990	 5.254307
-4.932894	-23.471590	 1.005093	-26.007020	 8.902771	 3.029762	 5.005511	-18.678490	 174.979800	-4.561249	-35.129390	-1.483868	-1.547198	 83.063480	-0.916138	-2.324055	 37.508030	-0.210739	-2.466338	-18.502350	-179.611900	-1.874878	-34.457880	-1.208266	-2.519668	 86.052360	 1.311328	 2.397484	 24.846160	-0.074949	 0.493552	 4.575686	-1.953623	 1.039966	 4.951973	-1.998247	 0.932429	 2.935042	 0.037833	-99.127700	 88.406150	-170.294600	 52.684680	 70.362400	-62.330400	-6.359788	-4.229781	-16.257710	 5.971555	-27.597860	-5.964424	-3.881522	-12.992090	 2.770435	-5.213516	-0.193813	 3.566525	-1.378229	 35.397820	-2.634230	 1.065868	 2.251707	 1.039893	 0.772040	 4.796397	 0.053750	 97.754470	 88.288800	 169.346300	-53.046720	 75.809460	 64.868770	-3.252279	-12.502820	 22.472960	-21.513640	-28.227160	 10.844600	-6.979860	-3.674025	-36.358490	 5.070815	-0.697434	-9.399699	-2.350882	 35.473990	 5.254307
-4.934969	-23.471760	 1.005774	-26.381010	 8.882422	 2.653197	 5.103898	-18.177010	 175.309000	-4.738525	-34.532370	-1.478557	-1.610460	 82.895990	-0.910902	-2.325689	 37.336440	-0.206401	-2.465352	-18.620050	-179.350700	-1.915491	-34.500270	-1.213196	-2.638765	 86.051920	 1.426762	 2.396771	 25.091640	-0.069859	 0.565944	 4.665954	-1.521076	 1.080742	 4.969663	-1.819328	 0.975417	 2.982514	 0.039173	-99.451350	 88.444800	-169.937200	 54.112290	 69.807820	-63.515700	-6.431404	-4.130105	-17.043600	 5.112129	-27.827340	-5.993593	-3.782673	-12.903200	 2.995059	-5.213516	-0.193813	 3.566525	-1.378229	 35.397820	-2.634230	 1.109139	 2.193712	 0.952240	 0.804638	 4.949129	-0.094640	 97.544940	 88.237190	 169.533100	-52.729250	 75.712740	 64.657910	-3.449985	-12.491750	 22.303460	-21.609920	-28.475440	 10.867700	-6.967144	-3.625204	-36.362400	 5.070815	-0.697434	-9.399699	-2.350882	 35.473990	 5.254307
-4.936870	-23.471930	 1.006615	-26.431020	 8.894758	 2.456103	 5.133941	-17.888150	 175.420200	-4.746501	-34.036990	-1.429549	-1.681836	 82.826350	-0.823590	-2.326760	 37.221540	-0.203510	-2.497124	-18.568620	-179.297800	-1.835687	-34.670480	-1.180190	-2.716427	 86.055930	 1.558465	 2.396089	 25.319960	-0.065108	 0.470222	 4.754653	-1.444793	 1.003250	 4.995368	-1.697042	 0.995007	 3.019714	 0.039636	-98.956970	 88.381900	-170.479500	 55.951870	 68.854970	-65.378180	-5.510495	-4.184772	-17.535530	 4.966004	-28.133330	-6.015272	-3.535207	-12.194760	 3.565443	-5.213516	-0.193813	 3.566525	-1.378229	 35.397820	-2.634230	 1.100092	 2.181396	 1.007154	 0.863977	 5.032466	-0.079674	 98.054870	 88.287420	 168.943600	-52.047540	 75.596440	 64.116550	-3.629803	-12.476700	 22.129240	-21.689840	-28.789040	 10.898620	-6.998821	-3.684437	-36.399920	 5.070815	-0.697434	-9.399699	-2.350882	 35.473990	 5.254307
-4.938247	-23.472290	 1.007316	-26.324080	 8.925464	 2.370083	 5.116940	-17.742950	 175.453300	-4.696276	-33.745700	-1.389622	-1.732423	 82.783600	-0.745328	-2.327353	 37.158280	-0.201920	-2.518063	-18.500430	-179.298200	-1.697189	-34.791700	-1.111552	-2.741339	 86.057130	 1.687251	 2.395211	 25.601740	-0.059226	 0.328938	 4.719425	-1.520996	 0.898438	 5.040545	-1.637904	 1.001367	 3.071787	 0.039436	-98.288250	 88.299690	-171.237700	 57.299340	 68.075250	-66.987660	-4.499115	-4.329450	-17.793130	 5.238320	-28.460430	-6.032358	-3.350930	-11.500380	 4.002034	-5.213516	-0.193813	 3.566525	-1.378229	 35.397820	-2.634230	 1.085635	 2.264075	 0.978406	 0.900338	 5.050148	 0.195279	 98.940250	 88.399410	 167.995800	-51.051120	 75.503200	 63.220230	-3.698651	-12.467350	 22.040740	-21.690250	-29.116600	 10.932540	-7.031547	-3.717710	-36.459750	 5.070815	-0.697434	-9.399699	-2.350882	 35.473990	 5.254307
-4.939449	-23.472690	 1.007878	-26.101290	 8.941860	 2.285920	 5.105855	-17.666450	 175.460600	-4.560130	-33.574170	-1.308417	-1.725717	 82.759550	-0.646464	-2.327935	 37.096110	-0.200353	-2.544065	-18.421540	-179.299400	-1.558659	-34.784270	-1.046052	-2.767743	 86.049290	 1.810447	 2.394715	 25.757190	-0.055980	 0.143744	 4.623867	-1.566018	 0.740162	 5.092864	-1.620958	 0.970592	 3.131885	 0.037715	-97.849730	 88.271610	-171.786300	 58.062330	 67.653010	-68.111790	-4.069593	-4.420568	-18.014410	 5.353200	-28.807310	-6.053366	-3.245553	-11.065400	 4.257190	-5.213516	-0.193813	 3.566525	-1.378229	 35.397820	-2.634230	 1.003789	 2.293020	 1.044263	 0.943412	 5.135241	 0.207419	 99.767590	 88.487290	 167.110000	-49.833760	 75.424510	 62.074420	-3.678438	-12.462710	 22.020610	-21.624980	-29.464400	 10.969030	-7.058389	-3.706470	-36.537990	 5.070815	-0.697434	-9.399699	-2.350882	 35.473990	 5.254307
-4.940387	-23.472920	 1.008403	-25.811390	 8.926360	 2.180005	 5.110707	-17.602680	 175.466200	-4.361416	-33.463050	-1.189088	-1.704842	 82.751210	-0.494029	-2.328366	 37.048820	-0.199171	-2.617170	-18.326820	-179.260800	-1.415758	-34.751290	-0.999974	-2.814137	 86.034840	 1.924974	 2.394695	 25.761640	-0.055883	-0.046352	 4.610354	-1.534073	 0.563895	 5.139438	-1.638304	 0.919462	 3.186593	 0.035289	-97.659810	 88.288450	-172.066200	 58.612760	 67.336620	-69.018740	-4.144964	-4.402438	-18.350350	 5.058992	-29.192630	-6.081625	-3.362621	-10.988930	 3.983950	-5.213516	-0.193813	 3.566525	-1.378229	 35.397820	-2.634230	 0.893439	 2.270662	 1.013956	 0.971954	 5.263084	 0.191666	 99.963780	 88.482510	 166.846600	-48.537780	 75.330670	 60.894430	-3.602376	-12.472970	 22.058090	-21.520980	-29.854760	 11.010990	-7.084893	-3.664034	-36.639160	 5.070815	-0.697434	-9.399699	-2.350882	 35.473990	 5.254307
